/* XPM */
static char * crqt_xpm[] = {
"48 48 32 1",
" 	c None",
".	c #000000",
"+	c #40CE51",
"@	c #42CD52",
"#	c #41CD51",
"$	c #41CE52",
"%	c #3ECC4F",
"&	c #41CD52",
"*	c #42CC53",
"=	c #40CC53",
"-	c #40CD52",
";	c #41CC53",
">	c #42CD51",
",	c #40CC51",
"'	c #41CE51",
")	c #41CD50",
"!	c #41CC52",
"~	c #41D053",
"{	c #41CE54",
"]	c #41CB53",
"^	c #40CE53",
"/	c #42CC51",
"(	c #42CE52",
"_	c #42CD53",
":	c #43D051",
"<	c #41CD53",
"[	c #41CC51",
"}	c #42CF54",
"|	c #3ECB53",
"1	c #42CE51",
"2	c #41CE53",
"3	c #40CD51",
"                                                ",
"                                                ",
"                                                ",
"                                                ",
"              .......            ........       ",
"            .........          ............     ",
"          ...........        ..............     ",
"         ............      .................    ",
"        ....    .....     .....    .........    ",
"       ...        ...     ..      ...  .....    ",
"      ...          ..            ...   .....    ",
"      ..                         ..   .....     ",
"     ..                         ...  .....      ",
"     ..                         .. ......       ",
"     ..                        ........         ",
"    ...                       ......            ",
"    ...                      .....              ",
"    ....                     ......             ",
"    .....                   .........           ",
"    ........            .....  .......          ",
"     .................  ....    ......          ",
"     .................. ...      .....          ",
"      ................            ....          ",
"        ..............             ..           ",
"                                                ",
"                                                ",
"                                                ",
"      ... ...    ........                       ",
"    ..........  .........                       ",
"    .......... .... .....                       ",
"     ......... ...  ....       +@#$             ",
"    ..... ........  ....    %&&&&&&#*    =&&&   ",
"    ....  ...  ...  ....   -&&&&;&&&&>   &&&>   ",
"    ...  ....  ........   ,&&&'   &&&&  )!&&-)~ ",
"   ....  ....   ......    @&&-    {&&&=>&&&&&&& ",
"   ....  ..... ....      ]&&&      &&&^/&&&&&&( ",
"   ...   ............    -&&_     :&&&  '&&<    ",
"   ...   .... ........   &&&[     <&&&  #&&}    ",
"             ..........  $&&[     _&&!  &&&     ",
"            ....   ....  &&&&    =&&&~ |&&-     ",
"            ..... .....  >&&&!  /&&&!  >&&_     ",
"            ..........    $&&&&&&&&$   1&&&!$   ",
"              .......      -&&&&&$}     <&&&#   ",
"                             %=&&+        =     ",
"                              2&&&<$=           ",
"                               !&&&&@           ",
"                                _@/3            ",
"                                                "};
