<?xml version="1.0" encoding="UTF-8" standalone="no"?>
<svg
   width="48"
   height="48"
   viewBox="0 0 12.7 12.7"
   version="1.1"
   id="svg8"
   inkscape:version="1.1.1 (c3084ef, 2021-09-22)"
   sodipodi:docname="crqt.svg"
   inkscape:export-xdpi="96"
   inkscape:export-ydpi="96"
   xmlns:inkscape="http://www.inkscape.org/namespaces/inkscape"
   xmlns:sodipodi="http://sodipodi.sourceforge.net/DTD/sodipodi-0.dtd"
   xmlns="http://www.w3.org/2000/svg"
   xmlns:svg="http://www.w3.org/2000/svg"
   xmlns:rdf="http://www.w3.org/1999/02/22-rdf-syntax-ns#"
   xmlns:cc="http://creativecommons.org/ns#"
   xmlns:dc="http://purl.org/dc/elements/1.1/">
  <defs
     id="defs2" />
  <sodipodi:namedview
     id="base"
     pagecolor="#ffffff"
     bordercolor="#666666"
     borderopacity="1.0"
     inkscape:pageopacity="0.0"
     inkscape:pageshadow="2"
     inkscape:zoom="3.4606537"
     inkscape:cx="12.569879"
     inkscape:cy="33.086234"
     inkscape:document-units="px"
     inkscape:current-layer="layer1"
     inkscape:document-rotation="0"
     showgrid="false"
     units="px"
     inkscape:window-width="1492"
     inkscape:window-height="933"
     inkscape:window-x="0"
     inkscape:window-y="25"
     inkscape:window-maximized="0"
     inkscape:pagecheckerboard="0" />
  <metadata
     id="metadata5">
    <rdf:RDF>
      <cc:Work
         rdf:about="">
        <dc:format>image/svg+xml</dc:format>
        <dc:type
           rdf:resource="http://purl.org/dc/dcmitype/StillImage" />
        <dc:title />
      </cc:Work>
    </rdf:RDF>
  </metadata>
  <g
     inkscape:label="Слой 1"
     inkscape:groupmode="layer"
     id="layer1">
    <g
       aria-label="ng"
       id="text891"
       style="font-size:21.0808px;line-height:1.25;font-family:'Amasis MT W1G';-inkscape-font-specification:'Amasis MT W1G';letter-spacing:-0.263514px;stroke-width:0.527025">
      <path
         d="M 1.1486429,7.4367249 1.0193468,7.8752073 c 0.1124314,-0.011243 0.1461608,-0.016865 0.2023765,-0.016865 0.050594,0 0.118053,0.022486 0.118053,0.095567 0,0.061837 -0.028108,0.1349177 -0.039351,0.1855118 L 0.77761924,9.9945393 H 1.5196665 L 1.7445293,9.2243842 c 0.2754569,-0.9725317 0.6745884,-1.242367 0.8657218,-1.242367 0.095567,0 0.1517824,0.078702 0.1517824,0.1517824 0,0.078702 -0.022486,0.1461608 -0.050594,0.247349 L 2.4191177,9.3593018 c -0.033729,0.1068099 -0.056216,0.2136197 -0.056216,0.3204295 0,0.089945 0.039351,0.3935097 0.4216178,0.3935097 0.2923216,0 0.5171844,-0.1349174 0.68021,-0.2304841 L 3.5996474,9.2974646 c -0.011243,0.00562 -0.044972,0.028108 -0.056216,0.028108 -0.1405392,0.089945 -0.1855118,0.095567 -0.2248628,0.095567 -0.056216,0 -0.089945,-0.050594 -0.089945,-0.089945 0,-0.050594 0.016865,-0.1124314 0.028108,-0.1517824 L 3.5771612,8.1394211 C 3.6165121,8.0157466 3.64462,7.9089367 3.64462,7.7571544 c 0,-0.2529707 -0.196755,-0.4946982 -0.5340492,-0.4946982 -0.4778334,0 -0.7870198,0.3710236 -0.9837747,0.6239943 L 2.1155529,7.8752073 C 2.1998765,7.5941288 2.2223628,7.4648327 2.2392275,7.3074287 Z"
         style="font-style:italic;font-weight:bold;font-size:5.62157px;-inkscape-font-specification:'Amasis MT W1G Bold Italic'"
         id="path10443" />
      <path
         d="M 6.5833806,7.3411582 H 5.6783078 c -0.1349176,-0.044973 -0.247349,-0.078702 -0.5284276,-0.078702 -1.1299355,0 -1.2367454,0.8882081 -1.2367454,1.1074493 0,0.5734002 0.3935099,0.7026963 0.562157,0.7532904 V 9.134439 C 3.8794054,9.252492 3.845676,9.5841646 3.845676,9.6853529 c 0,0.2248628 0.1574039,0.3091864 0.2192412,0.3316731 v 0.01124 c -0.444104,0.03935 -0.7926414,0.219241 -0.7926414,0.612751 0,0.629616 0.9556669,0.64648 1.3829063,0.64648 0.5115629,0 0.7364257,-0.07308 0.9556669,-0.196755 0.2361059,-0.134917 0.4159962,-0.376645 0.4159962,-0.685831 0,-0.342916 -0.1630255,-0.6183728 -1.1524219,-0.7982631 -0.118053,-0.022486 -0.2079981,-0.061837 -0.2079981,-0.1517824 0,-0.1292961 0.2585922,-0.1630255 0.3148079,-0.1742686 C 5.5152823,9.213141 5.7007941,9.1063312 5.8300902,9.0051429 6.054953,8.8364958 6.2179786,8.5554173 6.2179786,8.2406094 6.2179786,8.010125 6.1392766,7.892072 6.0830609,7.7965053 H 6.4653277 Z M 4.6664252,8.4148781 c 0,-0.2023766 0.118053,-0.7645336 0.5003198,-0.7645336 0.1349176,0 0.3372942,0.07308 0.3372942,0.3766452 0,0.2698354 -0.1349177,0.8151277 -0.5115629,0.8151277 -0.1686471,0 -0.3260511,-0.118053 -0.3260511,-0.3597805 z M 4.5090213,10.230645 c 0.5958864,0.118053 0.7532903,0.202377 0.7532903,0.337294 0,0.21362 -0.365402,0.275457 -0.562157,0.275457 -0.3316726,0 -0.6689668,-0.08995 -0.6689668,-0.303564 0,-0.10681 0.1011883,-0.275457 0.4778335,-0.309187 z"
         style="font-style:italic;font-weight:bold;font-size:5.62157px;-inkscape-font-specification:'Amasis MT W1G Bold Italic'"
         id="path10445" />
    </g>
    <g
       aria-label="Qt"
       id="text895"
       style="font-size:7.85139px;line-height:1.25;font-family:'Amasis MT W1G';-inkscape-font-specification:'Amasis MT W1G';fill:#41cd52;stroke-width:0.196286">
      <path
         d="m 10.116776,9.3458695 q 0,0.3019673 -0.07821,0.6061071 -0.078208,0.3041394 -0.2433122,0.5713484 -0.1585871,0.256346 -0.3975541,0.464899 -0.2389669,0.206381 -0.5409343,0.319347 -0.00869,0.03041 -0.013034,0.07169 -0.00434,0.04345 -0.00434,0.08038 0,0.147725 0.091242,0.212898 0.093414,0.06734 0.3171744,0.06734 0.093414,0 0.2172426,-0.03041 0.1260008,-0.02824 0.1824839,-0.05431 H 9.730084 L 9.597566,12.22868 q -0.1281732,0.02824 -0.2606912,0.04997 -0.1325181,0.02172 -0.3671402,0.02172 -0.443175,0 -0.6712798,-0.171622 -0.2259324,-0.171622 -0.2259324,-0.495313 0,-0.05431 0.00434,-0.09993 0.00652,-0.04562 0.013035,-0.08907 -0.00217,0 -0.00652,0 -0.00434,0 -0.00652,0 -0.6625901,0 -1.03842,-0.341071 -0.3736574,-0.343244 -0.3736574,-0.942833 0,-0.4214513 0.1433802,-0.8016259 Q 6.9515501,8.9787294 7.2187586,8.6897966 7.4794499,8.4095536 7.8639694,8.2422767 8.2484889,8.0749998 8.7025261,8.0749998 q 0.6647626,0 1.03842,0.3432435 0.3758299,0.3432434 0.3758299,0.9276262 z M 8.9241137,10.449462 q 0.147725,-0.193346 0.2302772,-0.44752 0.084725,-0.256346 0.084725,-0.5887273 0,-0.3475883 -0.1672769,-0.5431067 -0.1651044,-0.1976908 -0.473589,-0.1976908 -0.2020357,0 -0.386692,0.093414 -0.1824839,0.091242 -0.3367262,0.2802431 -0.1498974,0.1803114 -0.2411393,0.4496923 -0.091242,0.2672085 -0.091242,0.6017621 0,0.371485 0.1694493,0.560486 0.1716217,0.189001 0.4735891,0.189001 0.2085529,0 0.4018989,-0.102104 0.193346,-0.104276 0.3367262,-0.29545 z"
         style="font-style:italic;font-weight:bold;font-size:4.44913px;font-family:'Noto Serif';-inkscape-font-specification:'Noto Serif Bold Italic'"
         id="path10485" />
      <path
         d="m 11.211679,11.424882 q -0.406244,0 -0.580038,-0.132518 -0.173794,-0.134691 -0.173794,-0.397554 0,-0.06952 0.01086,-0.134691 0.01086,-0.06517 0.02824,-0.15207 l 0.265036,-1.1557306 h -0.321519 l 0.119483,-0.5148651 h 0.321519 l 0.16076,-0.697349 h 0.784246 l -0.16076,0.697349 h 0.734281 l -0.119484,0.5148651 h -0.73428 l -0.202036,0.8798326 q -0.02172,0.09124 -0.04128,0.184657 -0.01955,0.09124 -0.01955,0.156414 0,0.130346 0.07169,0.182484 0.07386,0.04997 0.225933,0.04997 0.06083,0 0.158587,-0.02172 0.09993,-0.0239 0.158587,-0.05214 h 0.06517 l -0.121656,0.523555 q -0.132518,0.03259 -0.280243,0.04997 -0.145553,0.01955 -0.349761,0.01955 z"
         style="font-style:italic;font-weight:bold;font-size:4.44913px;font-family:'Noto Serif';-inkscape-font-specification:'Noto Serif Bold Italic'"
         id="path10487" />
    </g>
    <path
       style="fill:#000000;stroke-width:0.0710442"
       d="M 2.6201784,6.3146151 C 2.3634515,6.2583527 1.9174101,6.0419115 1.7192127,5.8774222 1.6570746,5.8258522 1.5294549,5.6620319 1.4356132,5.5133771 0.89759185,4.6610962 1.2628537,3.1860617 2.2593251,2.1869863 2.9413113,1.503218 3.5687218,1.2160753 4.5078209,1.1579325 5.4201521,1.1014469 5.4683231,1.1334357 5.4836667,1.8059602 5.4964456,2.3660667 5.3507654,2.9753263 5.2040595,2.9753263 c -0.053533,0 -0.097333,-0.041926 -0.097333,-0.09317 0,-0.051244 -0.06394,-0.1618014 -0.1420884,-0.2456841 C 4.886489,2.5525893 4.8225492,2.452993 4.8225492,2.4151466 4.8225492,2.2703646 4.3414519,2.1043154 3.8234409,2.0703075 3.3474989,2.0390615 3.2406885,2.0565245 2.8884043,2.2231816 2.169194,2.5634224 1.7662352,3.1420958 1.7578182,3.8467722 c -0.00256,0.2142956 0.03233,0.4587342 0.077533,0.5431968 0.1468598,0.2744101 0.6011965,0.6406874 0.8558709,0.6899864 0.1367602,0.026473 0.3168677,0.092505 0.4002389,0.146737 0.083371,0.054232 0.179281,0.09081 0.2131327,0.081285 0.033852,-0.00952 0.1852266,0.024936 0.3363887,0.076579 0.1789659,0.061142 0.3896199,0.076114 0.6038759,0.042918 0.4917872,-0.076195 1.5273401,-0.037938 1.5888301,0.058698 C 5.9380129,5.6501251 5.8885594,6.007891 5.7434154,6.1392445 5.631571,6.2404629 5.4254388,6.2823641 4.8376026,6.323372 3.8873179,6.389665 2.9456626,6.385946 2.6201784,6.314612 Z m 6.8481221,-0.09058 C 9.4250211,6.1760524 9.0522151,5.8422936 8.6398418,5.4823488 L 7.8900734,4.8279039 7.5570142,5.2177536 C 7.2345566,5.5951943 6.924519,5.8170948 6.7196196,5.8170948 c -0.2655322,0 -0.5219709,-0.4662262 -0.3809959,-0.692681 0.070665,-0.1135129 0.6307167,-0.1159672 0.743426,-0.00326 0.0667,0.0667 0.1559157,0.016486 0.404952,-0.2279246 0.1756726,-0.1724094 0.3194047,-0.3531817 0.3194047,-0.401716 0,-0.048534 0.043999,-0.1138101 0.097776,-0.1450575 C 7.9579594,4.3152087 8.1543381,4.0498682 8.3405805,3.7568108 8.5268222,3.4637534 8.819962,3.0070048 8.992002,2.7418137 9.4552125,2.0277993 9.4570866,2.0517497 8.937998,2.0517497 c -0.4849799,0 -0.7021848,0.055297 -1.4341549,0.3651135 -0.55935,0.2367527 -0.5499674,0.2350999 -0.5499674,0.096879 0,-0.1953438 0.4790242,-0.6396419 0.9347076,-0.8669475 C 8.6522858,1.2658421 8.9377372,1.1915403 9.6928272,1.177158 10.719016,1.157612 11.067238,1.2785365 11.431063,1.7807815 c 0.237127,0.3273447 0.259962,0.5153218 0.107055,0.8812786 -0.291952,0.6987391 -0.855216,1.0496689 -2.4173936,1.5061061 -0.117223,0.03425 -0.2131327,0.095523 -0.2131327,0.1361616 0,0.040639 0.1745727,0.2118803 0.3879398,0.3805372 0.2133671,0.1686569 0.4611339,0.37029 0.5505927,0.4480736 0.1686678,0.1466544 0.2083068,0.383108 0.099966,0.5963136 C 9.9116115,5.7971034 9.8550034,5.948216 9.8202941,6.0650594 9.7523623,6.2937405 9.5951976,6.3647231 9.4683005,6.2240351 Z M 9.2111354,3.7733835 C 9.6550587,3.5432598 10.304139,3.0146043 10.460555,2.7557707 10.568098,2.5778127 10.563453,2.5637402 10.319864,2.3295054 L 10.067958,2.0872737 9.7291621,2.453799 C 9.5428245,2.655388 9.2261023,3.0390267 9.0253348,3.3063296 8.4948668,4.0125971 8.5384304,4.1221046 9.2111354,3.7733835 Z"
       id="path10617" />
  </g>
</svg>
